<svg xmlns="http://www.w3.org/2000/svg" viewBox="0 0 287.9 184.67"><defs><style>.cls-1{fill:none;stroke:#b91131;stroke-linecap:round;stroke-linejoin:round;stroke-width:4px;}.cls-2{isolation:isolate;}.cls-3{fill:#b91131;}</style></defs><g id="Layer_2" data-name="Layer 2"><g id="Layer_1-2" data-name="Layer 1"><g id="Group_128" data-name="Group 128"><g id="Icon_feather-arrow-up-circle" data-name="Icon feather-arrow-up-circle"><path id="Path_69" data-name="Path 69" class="cls-1" d="M170.9,109.92a28.22,28.22,0,1,1-28.22-28.21A28.22,28.22,0,0,1,170.9,109.92Z"/><path id="Path_70" data-name="Path 70" class="cls-1" d="M154,109.92,142.68,98.63l-11.29,11.29"/><path id="Path_71" data-name="Path 71" class="cls-1" d="M142.68,121.21V98.63"/></g><g id="TOP" class="cls-2"><g class="cls-2"><path class="cls-3" d="M116.4,184.3V167.62h-6v-3.85h16.37v3.85h-6V184.3Z"/><path class="cls-3" d="M130.93,174.05a10.73,10.73,0,1,1,10.71,10.62A10.31,10.31,0,0,1,130.93,174.05Zm16.95,0c0-3.85-2.46-6.74-6.24-6.74s-6.22,2.89-6.22,6.74,2.43,6.74,6.22,6.74S147.88,177.87,147.88,174.05Z"/><path class="cls-3" d="M158.54,184.3V163.77h9.6c4.46,0,6.89,3,6.89,6.62s-2.46,6.62-6.89,6.62h-5.23v7.29Zm12-13.91a2.75,2.75,0,0,0-3-2.77h-4.64v5.54h4.64A2.77,2.77,0,0,0,170.57,170.39Z"/></g></g></g><g id="_-_End_of_results_-_" data-name=" - End of results - " class="cls-2"><g class="cls-2"><path d="M0,19.21V16.5H9.85v2.71Z"/><path d="M24.87,27.79V.41H42.81v3H28.28v8.82H42.52v3H28.28v9.44H42.81v3Z"/><path d="M61.48,27.79v-13c0-3.49-1.76-4.6-4.43-4.6a7.66,7.66,0,0,0-5.87,3.08V27.79H48.1V8h3.08v2.88a9.79,9.79,0,0,1,7.06-3.37c4.14,0,6.32,2.09,6.32,6.4V27.79Z"/><path d="M85.08,27.79v-3a8.36,8.36,0,0,1-6.69,3.45c-5.17,0-8.83-3.94-8.83-10.38S73.18,7.47,78.39,7.47A8.27,8.27,0,0,1,85.08,11V.41h3.08V27.79Zm0-5.38v-9a7.46,7.46,0,0,0-6-3.2c-4,0-6.36,3.28-6.36,7.68s2.38,7.63,6.36,7.63A7.39,7.39,0,0,0,85.08,22.41Z"/><path d="M103.75,17.85c0-5.74,3.78-10.38,9.81-10.38s9.81,4.64,9.81,10.38-3.77,10.43-9.81,10.43S103.75,23.6,103.75,17.85Zm16.38,0c0-4-2.34-7.63-6.57-7.63S107,13.83,107,17.85s2.38,7.68,6.61,7.68S120.13,21.92,120.13,17.85Z"/><path d="M129.24,27.79V10.67H126V8h3.29V6.44C129.24,2.38,131.45,0,135,0a5.77,5.77,0,0,1,4.19,1.52l-1.27,2a3.65,3.65,0,0,0-2.46-1c-2,0-3.12,1.4-3.12,3.9V8h4v2.71h-4V27.79Z"/><path d="M150.58,27.79V8h3.08v3.2a8.43,8.43,0,0,1,6.61-3.61v3.16a5.6,5.6,0,0,0-1.24-.12,7.25,7.25,0,0,0-5.37,3.16v14Z"/><path d="M163,17.85c0-5.74,4.11-10.38,9.77-10.38,6,0,9.52,4.68,9.52,10.63v.78h-16a7,7,0,0,0,7.15,6.86,8.67,8.67,0,0,0,6.11-2.51l1.48,2a10.77,10.77,0,0,1-7.88,3C167.2,28.28,163,24.05,163,17.85ZM172.7,10c-4.23,0-6.32,3.58-6.49,6.61h13A6.44,6.44,0,0,0,172.7,10Z"/><path d="M185.5,25.16l1.6-2.22a9,9,0,0,0,6.53,2.84c3,0,4.68-1.44,4.68-3.41,0-4.8-12.27-1.85-12.27-9.19,0-3.08,2.67-5.71,7.39-5.71a10,10,0,0,1,7.34,2.87l-1.43,2.14A7.72,7.72,0,0,0,193.43,10c-2.71,0-4.4,1.36-4.4,3.12,0,4.35,12.28,1.48,12.28,9.2,0,3.32-2.67,6-7.8,6A10.56,10.56,0,0,1,185.5,25.16Z"/><path d="M219.69,27.79V25a9.7,9.7,0,0,1-7.06,3.28c-4.14,0-6.32-2-6.32-6.32V8h3.08V21c0,3.48,1.77,4.51,4.43,4.51a7.58,7.58,0,0,0,5.87-3V8h3.08V27.79Z"/><path d="M228.92,27.79V.41H232V27.79Z"/><path d="M238.78,23.64v-13h-3.29V8h3.29V2.54h3.07V8h4v2.71h-4V23c0,1.47.66,2.54,2,2.54a3,3,0,0,0,2.09-.82l.9,2.3a5,5,0,0,1-3.69,1.27C240.25,28.28,238.78,26.6,238.78,23.64Z"/><path d="M248.5,25.16l1.6-2.22a9,9,0,0,0,6.53,2.84c3,0,4.68-1.44,4.68-3.41,0-4.8-12.28-1.85-12.28-9.19,0-3.08,2.67-5.71,7.39-5.71a10,10,0,0,1,7.35,2.87l-1.44,2.14A7.7,7.7,0,0,0,256.42,10c-2.71,0-4.39,1.36-4.39,3.12,0,4.35,12.27,1.48,12.27,9.2,0,3.32-2.66,6-7.8,6A10.52,10.52,0,0,1,248.5,25.16Z"/><path d="M278.05,19.21V16.5h9.85v2.71Z"/></g></g></g></g></svg>