<svg xmlns="http://www.w3.org/2000/svg" width="102" height="102" viewBox="0 0 102 102"><defs><style>.a{fill:#d80027;}.b{fill:#ffda44;}</style></defs><g transform="translate(-409 -621)"><rect class="a" width="102" height="102" rx="4" transform="translate(409 621)"/><path class="b" d="M18,0l4.249,13.363H36L24.884,21.636,29.134,35,18,26.746,6.865,35l4.27-13.364L0,13.363H13.751Z" transform="translate(419.5 653.5)"/><path class="b" d="M8.481,14,5.245,9.846.458,11.783,3.234,7.288,0,3.114,4.957,4.493,7.753,0l.268,5.353L13,6.73,8.194,8.647Z" transform="translate(460.5 686.5)"/><path class="b" d="M2.773,13l1.6-4.96L0,5.037l5.345-.078L6.921,0,8.655,4.921,14,4.863l-4.287,3.1,1.714,4.921-4.368-3Z" transform="translate(473.5 675.5)"/><path class="b" d="M11.616,1.165,9.409,5.692,13,9.206,8.044,8.491,5.836,13,4.975,8.041,0,7.327,4.452,4.978,3.591,0,7.184,3.513Z" transform="translate(472.5 658.5)"/><path class="b" d="M8.635,0,8.253,5.34,13,7.361,8.025,8.64,7.663,14,4.975,9.44,0,10.721l3.3-4.1L.59,2.079,5.337,4.1Z" transform="translate(460.5 645.5)"/></g></svg>