<svg xmlns="http://www.w3.org/2000/svg" viewBox="0 0 364.71 60.12"><defs><style>.cls-1,.cls-2{fill:none;}.cls-2{stroke:#b91131;stroke-width:2px;}.cls-3{isolation:isolate;}.cls-4{fill:#b91131;}</style></defs><g id="Layer_2" data-name="Layer 2"><g id="Layer_1-2" data-name="Layer 1"><g id="Rectangle_3-3" data-name="Rectangle 3-3"><path class="cls-1" d="M30.06,0H334.65a30.06,30.06,0,0,1,30.06,30.06h0a30.06,30.06,0,0,1-30.06,30.06H30.06A30.06,30.06,0,0,1,0,30.06H0A30.06,30.06,0,0,1,30.06,0Z"/><path class="cls-2" d="M30.06,1H334.65A29.05,29.05,0,0,1,363.7,30.06h0a29,29,0,0,1-29.05,29.05H30.06A29.05,29.05,0,0,1,1,30.06H1A29.06,29.06,0,0,1,30.06,1Z"/></g><g id="HIDE_Admin_Panel" data-name="HIDE Admin Panel" class="cls-3"><g class="cls-3"><path class="cls-4" d="M48.88,38.07V31.34H41.31v6.73H37.89V22h3.42v6.3h7.57V22h3.44v16Z"/><path class="cls-4" d="M57.88,38.07V22h3.41v16Z"/><path class="cls-4" d="M66.87,38.07V22h6.32c5,0,8.52,3.2,8.52,8s-3.49,8-8.52,8Zm11.35-8a4.7,4.7,0,0,0-5-5H70.28v10h2.91A4.8,4.8,0,0,0,78.22,30.07Z"/><path class="cls-4" d="M86.54,38.07V22H97.89v3H90v3.39h7.77v3H90v3.63h7.94v3Z"/><path class="cls-4" d="M122.59,38.07l-1-2.71h-6.88l-1,2.71h-3.89L116,22h4.28l6.18,16Zm-4.43-12.62-2.5,6.9h5Z"/><path class="cls-4" d="M130.38,38.07V22h6.32c5,0,8.51,3.2,8.51,8s-3.48,8-8.51,8Zm11.35-8a4.7,4.7,0,0,0-5-5h-2.91v10h2.91A4.81,4.81,0,0,0,141.73,30.07Z"/><path class="cls-4" d="M164,38.07V26.84l-4.52,11.23H158l-4.52-11.23V38.07h-3.41V22h4.78l3.9,9.69L162.62,22h4.81v16Z"/><path class="cls-4" d="M173,38.07V22h3.41v16Z"/><path class="cls-4" d="M193.07,38.07l-7.65-10.46V38.07H182V22h3.51l7.43,10.08V22h3.42v16Z"/><path class="cls-4" d="M210.5,38.07V22H218a5,5,0,0,1,5.39,5.17A5,5,0,0,1,218,32.37h-4.09v5.7Zm9.4-10.87A2.15,2.15,0,0,0,217.54,25h-3.63v4.33h3.63A2.16,2.16,0,0,0,219.9,27.2Z"/><path class="cls-4" d="M237.19,38.07l-1-2.71h-6.87l-1,2.71h-3.9l6.2-16h4.28l6.19,16Zm-4.42-12.62-2.51,6.9h5Z"/><path class="cls-4" d="M256,38.07,248.4,27.61V38.07H245V22h3.51l7.43,10.08V22h3.42v16Z"/><path class="cls-4" d="M264.91,38.07V22h11.36v3h-7.94v3.39h7.77v3h-7.77v3.63h7.94v3Z"/><path class="cls-4" d="M281.34,38.07V22h3.41v13h6.78v3Z"/></g></g><path id="Icon_ionic-ios-arrow-down-5" data-name="Icon ionic-ios-arrow-down-5" class="cls-4" d="M316.87,27.28l9.28,9.28a1.74,1.74,0,0,0,2.47,0h0a1.76,1.76,0,0,0,0-2.48L318.11,23.55a1.76,1.76,0,0,0-2.42-.05L305.1,34.07a1.76,1.76,0,0,0,2.48,2.49h0Z"/></g></g></svg>