<svg xmlns="http://www.w3.org/2000/svg" viewBox="0 0 364.71 60.12"><defs><style>.cls-1,.cls-2{fill:none;}.cls-2{stroke:#b91131;stroke-width:2px;}.cls-3{isolation:isolate;}.cls-4{fill:#b91131;}</style></defs><g id="Layer_2" data-name="Layer 2"><g id="Layer_1-2" data-name="Layer 1"><g id="Component_1_1" data-name="Component 1 1"><g id="Rectangle_5" data-name="Rectangle 5"><path class="cls-1" d="M30.06,0H334.65a30.06,30.06,0,0,1,30.06,30.06h0a30.06,30.06,0,0,1-30.06,30.06H30.06A30.06,30.06,0,0,1,0,30.06H0A30.06,30.06,0,0,1,30.06,0Z"/><path class="cls-2" d="M30.06,1H334.65A29.05,29.05,0,0,1,363.7,30.06h0a29,29,0,0,1-29.05,29.05H30.06A29.05,29.05,0,0,1,1,30.06H1A29.06,29.06,0,0,1,30.06,1Z"/></g><g id="HIDE_Experiences" data-name="HIDE Experiences" class="cls-3"><g class="cls-3"><path class="cls-4" d="M49.22,38.07V31.34H41.65v6.73H38.23V22h3.42v6.3h7.57V22h3.44v16Z"/><path class="cls-4" d="M58.21,38.07V22h3.42v16Z"/><path class="cls-4" d="M67.21,38.07V22h6.32c5,0,8.51,3.2,8.51,8s-3.48,8-8.51,8Zm11.35-8a4.7,4.7,0,0,0-5-5H70.62v10h2.91A4.81,4.81,0,0,0,78.56,30.07Z"/><path class="cls-4" d="M86.88,38.07V22H98.23v3H90.29v3.39h7.77v3H90.29v3.63h7.94v3Z"/><path class="cls-4" d="M111.86,38.07V22h11.35v3h-7.93v3.39H123v3h-7.76v3.63h7.93v3Z"/><path class="cls-4" d="M138.74,38.07l-4-5.86-4,5.86h-4.07l5.82-8.22L127,22h4.07l3.68,5.49L138.36,22h4.11L137,29.83l5.82,8.24Z"/><path class="cls-4" d="M146.75,38.07V22h7.5a5,5,0,0,1,5.39,5.17,5,5,0,0,1-5.39,5.17h-4.08v5.7Zm9.4-10.87A2.15,2.15,0,0,0,153.8,25h-3.63v4.33h3.63A2.16,2.16,0,0,0,156.15,27.2Z"/><path class="cls-4" d="M164.16,38.07V22h11.35v3h-7.93v3.39h7.76v3h-7.76v3.63h7.93v3Z"/><path class="cls-4" d="M189.65,38.07l-3.15-5.7H184v5.7h-3.42V22h7.51a5,5,0,0,1,5.38,5.17A4.61,4.61,0,0,1,190,32l3.61,6.1ZM190,27.2A2.18,2.18,0,0,0,187.58,25H184v4.33h3.58A2.19,2.19,0,0,0,190,27.2Z"/><path class="cls-4" d="M198.45,38.07V22h3.42v16Z"/><path class="cls-4" d="M207.44,38.07V22h11.35v3h-7.93v3.39h7.77v3h-7.77v3.63h7.93v3Z"/><path class="cls-4" d="M234.93,38.07l-7.65-10.46V38.07h-3.41V22h3.51l7.43,10.08V22h3.41v16Z"/><path class="cls-4" d="M243,30.07c0-4.93,3.73-8.3,8.54-8.3a7.34,7.34,0,0,1,6.71,3.92l-2.94,1.44a4.33,4.33,0,0,0-3.77-2.33,5,5,0,0,0-5,5.27,5,5,0,0,0,5,5.26A4.29,4.29,0,0,0,255.34,33l2.94,1.42a7.41,7.41,0,0,1-6.71,3.94C246.76,38.36,243,35,243,30.07Z"/><path class="cls-4" d="M262.73,38.07V22h11.35v3h-7.94v3.39h7.77v3h-7.77v3.63h7.94v3Z"/><path class="cls-4" d="M278.07,35.81l1.85-2.59a7.07,7.07,0,0,0,5.1,2.16c1.87,0,2.79-.87,2.79-1.78,0-2.84-9.24-.89-9.24-6.92,0-2.67,2.31-4.89,6.09-4.89A8.91,8.91,0,0,1,290.91,24l-1.9,2.5a6.9,6.9,0,0,0-4.67-1.75c-1.46,0-2.28.64-2.28,1.61,0,2.55,9.21.84,9.21,6.83,0,2.93-2.09,5.14-6.42,5.14A9.12,9.12,0,0,1,278.07,35.81Z"/></g></g><path id="Icon_ionic-ios-arrow-down-3" data-name="Icon ionic-ios-arrow-down-3" class="cls-4" d="M316.87,27.28l9.28,9.28a1.74,1.74,0,0,0,2.47,0h0a1.76,1.76,0,0,0,0-2.48L318.11,23.55a1.76,1.76,0,0,0-2.42-.05L305.1,34.07a1.76,1.76,0,0,0,2.48,2.49h0Z"/></g></g></g></svg>