<svg xmlns="http://www.w3.org/2000/svg" viewBox="0 0 364.71 60.12"><defs><style>.cls-1,.cls-2{fill:none;}.cls-2{stroke:#b91131;stroke-width:2px;}.cls-3{isolation:isolate;}.cls-4{fill:#b91131;}</style></defs><g id="Layer_2" data-name="Layer 2"><g id="Layer_1-2" data-name="Layer 1"><g id="Rectangle_3-2" data-name="Rectangle 3-2"><path class="cls-1" d="M30.06,0H334.65a30.06,30.06,0,0,1,30.06,30.06h0a30.06,30.06,0,0,1-30.06,30.06H30.06A30.06,30.06,0,0,1,0,30.06H0A30.06,30.06,0,0,1,30.06,0Z"/><path class="cls-2" d="M30.06,1H334.65A29.05,29.05,0,0,1,363.7,30.06h0a29,29,0,0,1-29.05,29.05H30.06A29.05,29.05,0,0,1,1,30.06H1A29.06,29.06,0,0,1,30.06,1Z"/></g><g id="View_Admin_Panel" data-name="View Admin Panel" class="cls-3"><g class="cls-3"><path class="cls-4" d="M40.55,38.07l-6.2-16h3.89l4.45,12.34L47.12,22H51l-6.18,16Z"/><path class="cls-4" d="M54.91,38.07V22h3.41v16Z"/><path class="cls-4" d="M63.9,38.07V22H75.25v3H67.31v3.39h7.77v3H67.31v3.63h7.94v3Z"/><path class="cls-4" d="M92.59,38.07l-2.82-11L87,38.07H83.35L78.76,22h3.82L85.4,33.62l3-11.59h2.67l3,11.59L96.94,22h3.85l-4.57,16Z"/><path class="cls-4" d="M124.43,38.07l-1-2.71h-6.88l-1,2.71h-3.89l6.2-16h4.28l6.18,16ZM120,25.45l-2.5,6.9h5Z"/><path class="cls-4" d="M132.22,38.07V22h6.32c5,0,8.51,3.2,8.51,8s-3.48,8-8.51,8Zm11.35-8a4.7,4.7,0,0,0-5-5h-2.91v10h2.91A4.81,4.81,0,0,0,143.57,30.07Z"/><path class="cls-4" d="M165.83,38.07V26.84l-4.52,11.23h-1.49L155.3,26.84V38.07h-3.42V22h4.79l3.9,9.69L164.46,22h4.81v16Z"/><path class="cls-4" d="M174.85,38.07V22h3.41v16Z"/><path class="cls-4" d="M194.9,38.07l-7.64-10.46V38.07h-3.42V22h3.51l7.43,10.08V22h3.42v16Z"/><path class="cls-4" d="M212.34,38.07V22h7.5a5,5,0,0,1,5.39,5.17,5,5,0,0,1-5.39,5.17h-4.09v5.7Zm9.4-10.87A2.15,2.15,0,0,0,219.38,25h-3.63v4.33h3.63A2.16,2.16,0,0,0,221.74,27.2Z"/><path class="cls-4" d="M239,38.07l-1-2.71h-6.87l-1,2.71h-3.9l6.2-16h4.28l6.19,16Zm-4.42-12.62-2.51,6.9h5Z"/><path class="cls-4" d="M257.88,38.07l-7.65-10.46V38.07h-3.41V22h3.51l7.43,10.08V22h3.42v16Z"/><path class="cls-4" d="M266.75,38.07V22H278.1v3h-7.93v3.39h7.77v3h-7.77v3.63h7.93v3Z"/><path class="cls-4" d="M283.18,38.07V22h3.41v13h6.78v3Z"/></g></g><path id="Icon_ionic-ios-arrow-down-4" data-name="Icon ionic-ios-arrow-down-4" class="cls-4" d="M316.87,32.85l9.28-9.3a1.75,1.75,0,0,1,2.47,0h0a1.77,1.77,0,0,1,0,2.49L318.11,36.56a1.76,1.76,0,0,1-2.42,0L305.1,26.05a1.75,1.75,0,0,1,2.48-2.48Z"/></g></g></svg>