<svg xmlns="http://www.w3.org/2000/svg" viewBox="0 0 364.71 60.12"><defs><style>.cls-1,.cls-2{fill:none;}.cls-2{stroke:#b91131;stroke-width:2px;}.cls-3{isolation:isolate;}.cls-4{fill:#b91131;}</style></defs><g id="Layer_2" data-name="Layer 2"><g id="Layer_1-2" data-name="Layer 1"><g id="Rectangle_4" data-name="Rectangle 4"><path class="cls-1" d="M30.06,0H334.65a30.06,30.06,0,0,1,30.06,30.06h0a30.06,30.06,0,0,1-30.06,30.06H30.06A30.06,30.06,0,0,1,0,30.06H0A30.06,30.06,0,0,1,30.06,0Z"/><path class="cls-2" d="M30.06,1H334.65A29.05,29.05,0,0,1,363.7,30.06h0a29,29,0,0,1-29.05,29.05H30.06A29.05,29.05,0,0,1,1,30.06H1A29.06,29.06,0,0,1,30.06,1Z"/></g><g id="View_Experiences" data-name="View Experiences" class="cls-3"><g class="cls-3"><path class="cls-4" d="M40.89,38.07,34.68,22h3.9L43,34.37,47.45,22h3.9l-6.18,16Z"/><path class="cls-4" d="M55.24,38.07V22h3.42v16Z"/><path class="cls-4" d="M64.24,38.07V22H75.59v3H67.65v3.39h7.77v3H67.65v3.63h7.94v3Z"/><path class="cls-4" d="M92.92,38.07l-2.81-11-2.79,11H83.69L79.1,22h3.82l2.81,11.59L88.79,22h2.67l3,11.59L97.28,22h3.84l-4.56,16Z"/><path class="cls-4" d="M113.7,38.07V22h11.35v3h-7.94v3.39h7.77v3h-7.77v3.63h7.94v3Z"/><path class="cls-4" d="M140.58,38.07l-4-5.86-4,5.86h-4.07l5.82-8.22L128.83,22h4.06l3.68,5.49L140.2,22h4.11l-5.46,7.79,5.82,8.25Z"/><path class="cls-4" d="M148.59,38.07V22h7.5a5,5,0,0,1,5.39,5.17,5,5,0,0,1-5.39,5.17H152v5.7ZM158,27.2A2.15,2.15,0,0,0,155.64,25H152v4.33h3.63A2.16,2.16,0,0,0,158,27.2Z"/><path class="cls-4" d="M166,38.07V22h11.35v3h-7.93v3.39h7.76v3h-7.76v3.63h7.93v3Z"/><path class="cls-4" d="M191.49,38.07l-3.15-5.7h-2.5v5.7h-3.42V22h7.51a5,5,0,0,1,5.38,5.17A4.61,4.61,0,0,1,191.8,32l3.61,6.1Zm.34-10.87A2.18,2.18,0,0,0,189.42,25h-3.58v4.33h3.58A2.19,2.19,0,0,0,191.83,27.2Z"/><path class="cls-4" d="M200.29,38.07V22h3.42v16Z"/><path class="cls-4" d="M209.28,38.07V22h11.35v3H212.7v3.39h7.77v3H212.7v3.63h7.93v3Z"/><path class="cls-4" d="M236.77,38.07l-7.65-10.46V38.07h-3.41V22h3.51l7.43,10.08V22h3.41v16Z"/><path class="cls-4" d="M244.87,30.07c0-4.93,3.73-8.3,8.54-8.3a7.34,7.34,0,0,1,6.71,3.92l-2.94,1.44a4.33,4.33,0,0,0-3.77-2.33,5,5,0,0,0-5,5.27,5,5,0,0,0,5,5.26A4.29,4.29,0,0,0,257.18,33l2.94,1.42a7.41,7.41,0,0,1-6.71,3.94C248.6,38.36,244.87,35,244.87,30.07Z"/><path class="cls-4" d="M264.57,38.07V22h11.35v3H268v3.39h7.77v3H268v3.63h7.94v3Z"/><path class="cls-4" d="M279.91,35.81l1.85-2.59a7.07,7.07,0,0,0,5.1,2.16c1.87,0,2.79-.87,2.79-1.78,0-2.84-9.24-.89-9.24-6.92,0-2.67,2.31-4.89,6.09-4.89A8.91,8.91,0,0,1,292.75,24l-1.9,2.5a6.9,6.9,0,0,0-4.67-1.75c-1.46,0-2.28.64-2.28,1.61,0,2.55,9.21.84,9.21,6.83,0,2.93-2.09,5.14-6.42,5.14A9.12,9.12,0,0,1,279.91,35.81Z"/></g></g><path id="Icon_ionic-ios-arrow-down-2" data-name="Icon ionic-ios-arrow-down-2" class="cls-4" d="M316.87,32.85l9.28-9.3a1.75,1.75,0,0,1,2.47,0h0a1.77,1.77,0,0,1,0,2.49L318.11,36.56a1.76,1.76,0,0,1-2.42,0L305.1,26.05a1.75,1.75,0,0,1,2.48-2.48Z"/></g></g></svg>